<svg version="1.0" xmlns="http://www.w3.org/2000/svg" width="960pt" height="960pt" viewBox="0 0 960 960"><g transform="translate(0.000000,960.000000) scale(0.100000,-0.100000)" fill="#000" stroke="none"><path d="M1990 9513c-36-25-107-79-158-120-294-238-474-548-5e2-861-4-48-6-1742-4-3764l2-3678h3615 3615v3680 3680h-110-110v544 544l-1937 6c-1066 3-2480 8-3143 10l-1205 5-65-46zm5818-610c10-71 67-324 98-430l6-23H4841c-2962 0-3071 1-3071 18 0 36 33 128 73 206 46 90 154 207 252 274l60 41h2820l2821 1 12-87zm462-4133V1380H4945 1620v3390 3390h3325 3325V4770z"/><path d="M1710 4770V1520h45 45v3250 3250h-45-45V4770z"/><path d="M3150 6e3v-890h360 360v-240-240h-445-445v-170-170h445 445v-285-285h-605-605v-170-170h2250 2250v170 170h-605-605v285 285l458 2 457 3 3 168 2 167h-460-460v240 240h365 365l-2 888-3 887-1762 3-1763 2V6e3zm1560 365v-225h-595-595v225 225h595 595v-225zm1580 0v-225h-610-610v225 225h610 610v-225zm-1582-732 2-223h-595-595v225 225l593-2 592-3 3-222zm1582 2v-225h-610-610v225 225h610 610v-225zm-730-765v-240h-655-655v233c0 129 3 237 7 240 3 4 298 7 655 7h648v-240zm0-865v-285h-655-655v285 285h655 655v-285z"/><path d="M5445 3205c-65-69-116-128-113-130 2-3 64-25 137-50 424-145 947-362 1291-535l78-39 149 131c81 72 149 135 151 140 9 21-583 269-998 418-196 70-510 176-547 184-28 6-36 0-148-119z"/><path d="M4085 3264c-251-148-768-352-1192-469-92-26-174-48-181-51-8-2 14-35 60-86 40-46 93-109 118-140 25-32 52-58 62-58 26 0 332 93 513 156 223 78 482 183 665 271 167 80 4e2 204 399 213 0 8-335 220-345 219-5-1-49-25-99-55z"/></g></svg>