<?xml version="1.0" standalone="no"?>
<!DOCTYPE svg PUBLIC "-//W3C//DTD SVG 20010904//EN"
 "http://www.w3.org/TR/2001/REC-SVG-20010904/DTD/svg10.dtd">
<svg version="1.0" xmlns="http://www.w3.org/2000/svg"
 width="960.000000pt" height="960.000000pt" viewBox="0 0 960.000000 960.000000"
 preserveAspectRatio="xMidYMid meet">
<metadata>
Created by potrace 1.11, written by Peter Selinger 2001-2013
</metadata>
<g transform="translate(0.000000,960.000000) scale(0.100000,-0.100000)"
fill="#000000" stroke="none">
<path d="M1990 9513 c-36 -25 -107 -79 -158 -120 -294 -238 -474 -548 -500
-861 -4 -48 -6 -1742 -4 -3764 l2 -3678 3615 0 3615 0 0 3680 0 3680 -110 0
-110 0 0 544 0 544 -1937 6 c-1066 3 -2480 8 -3143 10 l-1205 5 -65 -46z
m5818 -610 c10 -71 67 -324 98 -430 l6 -23 -3071 0 c-2962 0 -3071 1 -3071 18
0 36 33 128 73 206 46 90 154 207 252 274 l60 41 2820 0 2821 1 12 -87z m462
-4133 l0 -3390 -3325 0 -3325 0 0 3390 0 3390 3325 0 3325 0 0 -3390z"/>
<path d="M1710 4770 l0 -3250 45 0 45 0 0 3250 0 3250 -45 0 -45 0 0 -3250z"/>
<path d="M3150 6000 l0 -890 360 0 360 0 0 -240 0 -240 -445 0 -445 0 0 -170
0 -170 445 0 445 0 0 -285 0 -285 -605 0 -605 0 0 -170 0 -170 2250 0 2250 0
0 170 0 170 -605 0 -605 0 0 285 0 285 458 2 457 3 3 168 2 167 -460 0 -460 0
0 240 0 240 365 0 365 0 -2 888 -3 887 -1762 3 -1763 2 0 -890z m1560 365 l0
-225 -595 0 -595 0 0 225 0 225 595 0 595 0 0 -225z m1580 0 l0 -225 -610 0
-610 0 0 225 0 225 610 0 610 0 0 -225z m-1582 -732 l2 -223 -595 0 -595 0 0
225 0 225 593 -2 592 -3 3 -222z m1582 2 l0 -225 -610 0 -610 0 0 225 0 225
610 0 610 0 0 -225z m-730 -765 l0 -240 -655 0 -655 0 0 233 c0 129 3 237 7
240 3 4 298 7 655 7 l648 0 0 -240z m0 -865 l0 -285 -655 0 -655 0 0 285 0
285 655 0 655 0 0 -285z"/>
<path d="M5445 3205 c-65 -69 -116 -128 -113 -130 2 -3 64 -25 137 -50 424
-145 947 -362 1291 -535 l78 -39 149 131 c81 72 149 135 151 140 9 21 -583
269 -998 418 -196 70 -510 176 -547 184 -28 6 -36 0 -148 -119z"/>
<path d="M4085 3264 c-251 -148 -768 -352 -1192 -469 -92 -26 -174 -48 -181
-51 -8 -2 14 -35 60 -86 40 -46 93 -109 118 -140 25 -32 52 -58 62 -58 26 0
332 93 513 156 223 78 482 183 665 271 167 80 400 204 399 213 0 8 -335 220
-345 219 -5 -1 -49 -25 -99 -55z"/>
</g>
</svg>
